<svg width="111" height="39" viewBox="0 0 111 39" fill="none" xmlns="http://www.w3.org/2000/svg">
<path d="M12.6942 5.36129C12.1534 5.36129 11.4938 6.09334 11.0497 7.05772L6.65711 16.4911H6.34931L2.11058 8.101C1.3367 6.40457 0.483673 5.36129 0 5.36129V5.15088H4.60369V5.36129C4.39263 5.36129 4.27391 5.59362 4.27391 5.97937C4.27391 6.40457 4.42781 7.04018 4.77518 7.77224L7.73438 13.541L10.5573 7.61881C10.7903 7.05772 10.9046 6.558 10.9046 6.17224C10.9046 5.67252 10.7112 5.36129 10.421 5.36129V5.15088H12.6854V5.36129H12.6942Z" fill="white"/>
<path d="M17.9755 16.2805V16.4909H13.3718V16.2805C13.9346 16.2805 14.3963 15.6843 14.3963 13.9835V8.92927C14.3963 6.65421 13.9698 6.6323 13.3718 6.6323V6.42189C13.8731 6.3649 14.5722 6.22901 15.3065 5.92216C15.9441 5.68984 16.3882 5.42244 16.7575 5.15066H16.951V13.9879C16.951 14.8383 17.0653 15.4169 17.2588 15.7632C17.4347 16.1314 17.6853 16.2849 17.9755 16.2849V16.2805ZM15.6539 3.45423C14.7041 3.45423 13.9302 2.66519 13.9302 1.71835C13.9302 0.771503 14.7041 0 15.6539 0C16.6036 0 17.3951 0.771503 17.3951 1.71835C17.3951 2.66519 16.6036 3.45423 15.6539 3.45423Z" fill="white"/>
<path d="M29.0433 13.6769C28.287 15.1234 26.3523 16.4911 24.167 16.4911C20.7022 16.4911 18.5344 13.9442 18.5344 10.8188C18.5344 7.69332 20.5263 5.14648 24.145 5.14648C25.4026 5.14648 28.6344 5.70758 28.6344 8.32893C28.6344 11.4719 22.5577 11.7262 21.0495 11.7612C21.6871 13.8653 23.3712 15.0796 25.3278 15.0796H25.6005C27.3593 14.9831 28.4629 14.2686 28.9686 13.5936L29.0477 13.6725L29.0433 13.6769ZM20.8385 10.0517C20.8385 10.5514 20.8956 11.0555 21.0143 11.5947C23.9955 10.8407 26.3919 9.60893 26.3919 7.65825C26.3919 5.96182 25.1739 5.40073 24.1274 5.40073C22.483 5.40073 20.8385 7.34702 20.8385 10.0517Z" fill="white"/>
<path d="M47.6946 5.15088V5.36129C47.1317 5.36129 46.4766 6.09334 46.0325 7.05772L41.6574 16.4911H41.3496L38.2937 10.433L35.4884 16.4911H35.1806L30.9419 8.101C30.5549 7.25059 30.1504 6.57553 29.7811 6.09334C29.3941 5.62868 29.0643 5.36129 28.8313 5.36129V5.15088H33.435V5.36129C33.2239 5.36129 33.1052 5.59362 33.1052 5.97937C33.1052 6.42211 33.2591 7.05772 33.6065 7.77224L36.5657 13.541L38.153 10.1832L37.1065 8.101C36.7196 7.25059 36.315 6.57553 35.9457 6.09334C35.5588 5.62868 35.229 5.36129 34.9784 5.36129V5.15088H39.604V5.36129C39.5469 5.36129 39.4897 5.37882 39.4501 5.41827C39.3358 5.51471 39.2742 5.70759 39.2742 5.97937C39.2742 6.30813 39.3534 6.73334 39.5249 7.21553L39.6392 7.50484C39.6788 7.58374 39.7183 7.68018 39.7755 7.77662L42.7347 13.5454L45.54 7.6232C45.7906 7.0621 45.8874 6.57991 45.8874 6.19416C45.8874 5.67252 45.7115 5.36567 45.4037 5.36567V5.15526H47.6858L47.6946 5.15088Z" fill="white"/>
<path d="M1.72575 34.1785C1.53668 34.1785 1.43994 34.0821 1.43994 33.8936V23.1101C1.43994 22.9216 1.53668 22.8251 1.72575 22.8251H3.79235C3.99901 22.8251 4.10015 22.9216 4.10015 23.1101L4.1661 24.469C4.56183 23.8684 5.08068 23.4081 5.72705 23.0881C6.37341 22.7681 7.05495 22.606 7.77167 22.606C8.62029 22.606 9.3546 22.7857 9.97018 23.1451C10.5858 23.5046 11.0475 24.0175 11.3552 24.6881C11.7642 24.0175 12.3138 23.5002 13.0041 23.1451C13.6945 22.7857 14.442 22.606 15.2466 22.606C16.491 22.606 17.4715 22.9786 18.1794 23.7238C18.8918 24.469 19.2435 25.4903 19.2435 26.7922V33.8936C19.2435 34.0821 19.1468 34.1785 18.9577 34.1785H16.6713C16.4822 34.1785 16.3855 34.0821 16.3855 33.8936V27.9539C16.3855 26.1128 15.7127 25.1922 14.3628 25.1922C13.6461 25.1922 13.0305 25.4684 12.5249 26.0251C12.0192 26.5818 11.7686 27.3709 11.7686 28.3922V33.8936C11.7686 34.0821 11.6718 34.1785 11.4828 34.1785H9.19631C9.00723 34.1785 8.9105 34.0821 8.9105 33.8936V27.9539C8.9105 26.1128 8.23775 25.1922 6.88786 25.1922C6.17115 25.1922 5.55556 25.4684 5.0499 26.0251C4.54425 26.5818 4.29362 27.3709 4.29362 28.3922V33.8936C4.29362 34.0821 4.19688 34.1785 4.00781 34.1785H1.72575Z" fill="white"/>
<path d="M22.6288 38.9566C22.5276 38.9566 22.4573 38.9259 22.4221 38.869C22.3869 38.812 22.3825 38.7287 22.4089 38.6279L24.4975 33.4553L19.9246 23.154C19.8938 23.097 19.8806 23.0531 19.8806 23.0225C19.8806 22.8909 19.9686 22.8252 20.1444 22.8252H22.8706C23.0333 22.8252 23.1432 22.8997 23.2004 23.0444L25.9705 30.0142L28.6747 23.0444C28.7318 22.8997 28.8418 22.8252 29.0045 22.8252H31.5108C31.6119 22.8252 31.6866 22.8559 31.7306 22.9129C31.7746 22.9699 31.7746 23.0531 31.7306 23.154L25.3549 38.7374C25.2978 38.8821 25.1878 38.9566 25.0251 38.9566H22.6288Z" fill="white"/>
<path d="M37.1954 33.6174C36.3511 33.1001 35.7488 32.3506 35.3838 31.373C35.3706 31.3423 35.3618 31.3073 35.3618 31.2634C35.3618 31.1451 35.4366 31.0662 35.5817 31.0223L37.5823 30.4744L37.6703 30.4525C37.8022 30.4525 37.8901 30.5182 37.9341 30.6497C38.1847 31.0881 38.4969 31.4037 38.8794 31.5922C39.262 31.7807 39.7061 31.8771 40.2205 31.8771C41.333 31.8771 41.8914 31.601 41.8914 31.0443C41.8914 30.8119 41.7683 30.6147 41.5177 30.4525C41.267 30.2903 40.8273 30.1237 40.1986 29.9484L39.6489 29.795C38.3298 29.4311 37.3713 28.9226 36.7689 28.2695C36.1665 27.6207 35.8675 26.8404 35.8675 25.9374C35.8675 25.2931 36.0522 24.7188 36.4171 24.2147C36.7821 23.7106 37.2921 23.3161 37.9429 23.0311C38.5936 22.7462 39.3455 22.6016 40.1942 22.6016C41.3066 22.6016 42.2432 22.8383 42.9995 23.3117C43.7558 23.7851 44.3098 24.4996 44.6615 25.4509C44.6747 25.4815 44.6835 25.5254 44.6835 25.5824C44.6835 25.7007 44.6176 25.7709 44.4857 25.8015L42.485 26.4372C42.4542 26.4503 42.4103 26.4591 42.3531 26.4591C42.2652 26.4591 42.186 26.4021 42.1113 26.2837C41.6716 25.5078 41.0208 25.1221 40.1546 25.1221C39.7457 25.1221 39.4203 25.1879 39.1784 25.3194C38.9366 25.4509 38.8135 25.6569 38.8135 25.9331C38.8135 26.1961 38.9498 26.4109 39.218 26.5774C39.4906 26.744 39.9391 26.9106 40.5723 27.0684L41.0999 27.1999C42.463 27.5374 43.426 28.0021 43.9888 28.6026C44.5516 29.2032 44.8374 29.9922 44.8374 30.9697C44.8374 31.9473 44.4153 32.8196 43.5711 33.4464C42.7268 34.0733 41.6452 34.3889 40.3261 34.3889C39.0817 34.3889 38.0352 34.1303 37.1954 33.6086V33.6174Z" fill="white"/>
<path d="M48.257 33.236C47.6063 32.4602 47.2809 31.3161 47.2809 29.795V25.3676H45.61C45.421 25.3676 45.3242 25.2712 45.3242 25.0827V23.1101C45.3242 22.9216 45.421 22.8251 45.61 22.8251H47.2809V19.7786C47.2809 19.5901 47.3776 19.4937 47.5667 19.4937H49.8532C50.0422 19.4937 50.139 19.5901 50.139 19.7786V22.8251H52.8431C53.0322 22.8251 53.1289 22.9216 53.1289 23.1101V25.0827C53.1289 25.2712 53.0322 25.3676 52.8431 25.3676H50.139V29.9703C50.139 30.584 50.2401 31.0443 50.4468 31.3511C50.6534 31.658 50.9744 31.8114 51.4141 31.8114C51.7791 31.8114 52.0649 31.6273 52.2715 31.2635C52.3727 31.0881 52.5046 31.0443 52.6673 31.1319L54.3821 31.8991C54.4832 31.9429 54.536 32.0218 54.536 32.1402C54.536 32.1972 54.514 32.2717 54.47 32.3593C54.0875 33.0607 53.6038 33.578 53.019 33.9067C52.4342 34.2355 51.7966 34.3977 51.1063 34.3977C49.862 34.3977 48.9122 34.0119 48.257 33.236Z" fill="white"/>
<path d="M56.9275 33.6525C56.1228 33.1571 55.5028 32.4602 55.0675 31.5703C54.6366 30.6804 54.4211 29.6547 54.4211 28.5018C54.4211 27.3489 54.6366 26.3232 55.0675 25.4333C55.4984 24.5435 56.1184 23.8465 56.9275 23.3512C57.7321 22.8558 58.6731 22.606 59.7416 22.606C60.533 22.606 61.2497 22.7594 61.8873 23.0662C62.5249 23.3731 63.0481 23.8114 63.4614 24.3813L63.5274 23.1101C63.5274 22.9216 63.6285 22.8251 63.8352 22.8251H65.9018C66.0909 22.8251 66.1876 22.9216 66.1876 23.1101V33.8936C66.1876 34.0821 66.0909 34.1785 65.9018 34.1785H63.8352C63.6285 34.1785 63.5274 34.0821 63.5274 33.8936L63.4614 32.6223C63.0525 33.1922 62.5293 33.6306 61.8873 33.9374C61.2497 34.2443 60.5374 34.3977 59.7416 34.3977C58.6731 34.3977 57.7321 34.1478 56.9275 33.6525ZM62.6656 30.8908C63.2372 30.2772 63.523 29.4793 63.523 28.5018C63.523 27.5243 63.2372 26.7265 62.6656 26.1128C62.094 25.4991 61.3553 25.1922 60.4451 25.1922C59.5349 25.1922 58.7962 25.4991 58.2246 26.1128C57.653 26.7265 57.3672 27.5243 57.3672 28.5018C57.3672 29.4793 57.653 30.2772 58.2246 30.8908C58.7962 31.5045 59.5349 31.8114 60.4451 31.8114C61.3553 31.8114 62.094 31.5045 62.6656 30.8908Z" fill="white"/>
<path d="M68.6882 34.1787C68.4991 34.1787 68.4023 34.0822 68.4023 33.8937V23.1102C68.4023 22.9217 68.4991 22.8253 68.6882 22.8253H70.7548C70.9614 22.8253 71.0625 22.9217 71.0625 23.1102L71.1285 24.5349C71.511 23.9343 72.0079 23.4741 72.6235 23.1541C73.2391 22.8341 73.8986 22.6719 74.6022 22.6719C74.8968 22.6719 75.1518 22.6938 75.3716 22.7376C75.5343 22.7815 75.6135 22.8823 75.6135 23.0445V25.302C75.6135 25.4642 75.5343 25.5431 75.3716 25.5431C75.2265 25.5431 75.0463 25.5299 74.8308 25.4993C74.6153 25.4686 74.4263 25.4554 74.246 25.4554C73.7184 25.4554 73.2259 25.5694 72.773 25.7973C72.3201 26.0253 71.9507 26.354 71.6737 26.7924C71.3967 27.2308 71.256 27.7349 71.256 28.3047V33.8937C71.256 34.0822 71.1593 34.1787 70.9702 34.1787H68.6838H68.6882Z" fill="white"/>
<path d="M79.0366 33.236C78.3858 32.4602 78.056 31.3161 78.056 29.795V25.3676H76.3852C76.1961 25.3676 76.0994 25.2712 76.0994 25.0827V23.1101C76.0994 22.9216 76.1961 22.8251 76.3852 22.8251H78.056V19.7786C78.056 19.5901 78.1528 19.4937 78.3419 19.4937H80.6283C80.8174 19.4937 80.9141 19.5901 80.9141 19.7786V22.8251H83.6183C83.8074 22.8251 83.9041 22.9216 83.9041 23.1101V25.0827C83.9041 25.2712 83.8074 25.3676 83.6183 25.3676H80.9141V29.9703C80.9141 30.584 81.0152 31.0443 81.2219 31.3511C81.4286 31.658 81.7496 31.8114 82.1893 31.8114C82.5542 31.8114 82.84 31.6273 83.0467 31.2635C83.1478 31.0881 83.2797 31.0443 83.4424 31.1319L85.1573 31.8991C85.2584 31.9429 85.3111 32.0218 85.3111 32.1402C85.3111 32.1972 85.2892 32.2717 85.2452 32.3593C84.8626 33.0607 84.379 33.578 83.7942 33.9067C83.2094 34.2355 82.5718 34.3977 81.8815 34.3977C80.6371 34.3977 79.6873 34.0119 79.0322 33.236H79.0366Z" fill="white"/>
<path d="M87.0792 33.2887C86.3537 32.5523 85.9932 31.5265 85.9932 30.2115V23.1101C85.9932 22.9216 86.0899 22.8252 86.279 22.8252H88.5654C88.7545 22.8252 88.8512 22.9216 88.8512 23.1101V29.0498C88.8512 30.001 89.0271 30.698 89.3789 31.1452C89.7306 31.5923 90.2803 31.8115 91.0278 31.8115C91.7753 31.8115 92.4128 31.5353 92.9405 30.9786C93.4681 30.4219 93.7319 29.6328 93.7319 28.6115V23.1101C93.7319 22.9216 93.8287 22.8252 94.0177 22.8252H96.3042C96.4933 22.8252 96.59 22.9216 96.59 23.1101V33.8936C96.59 34.0821 96.4933 34.1786 96.3042 34.1786H94.2376C94.0309 34.1786 93.9298 34.0821 93.9298 33.8936L93.8639 32.6005C93.4549 33.1835 92.9185 33.6306 92.2589 33.9375C91.5994 34.2443 90.8959 34.3977 90.1484 34.3977C88.8292 34.3977 87.8091 34.0295 87.0836 33.2887H87.0792Z" fill="white"/>
<path d="M99.0944 38.9566C98.9053 38.9566 98.8086 38.8601 98.8086 38.6716V23.1101C98.8086 22.9216 98.9053 22.8251 99.0944 22.8251H101.161C101.368 22.8251 101.469 22.9216 101.469 23.1101L101.535 24.3813C101.944 23.8114 102.467 23.3731 103.104 23.0662C103.742 22.7594 104.459 22.606 105.25 22.606C106.319 22.606 107.26 22.8558 108.064 23.3512C108.869 23.8465 109.489 24.5435 109.92 25.4333C110.351 26.3232 110.571 27.3489 110.571 28.5018C110.571 29.6547 110.355 30.6804 109.92 31.5703C109.489 32.4602 108.869 33.1571 108.064 33.6525C107.26 34.1478 106.319 34.3977 105.25 34.3977C104.516 34.3977 103.843 34.2574 103.228 33.9812C102.612 33.7051 102.093 33.3106 101.667 32.7977V38.6716C101.667 38.8601 101.57 38.9566 101.381 38.9566H99.0944ZM106.767 30.8908C107.339 30.2772 107.625 29.4793 107.625 28.5018C107.625 27.5243 107.339 26.7265 106.767 26.1128C106.196 25.4991 105.457 25.1922 104.547 25.1922C103.637 25.1922 102.898 25.4991 102.326 26.1128C101.755 26.7265 101.469 27.5243 101.469 28.5018C101.469 29.4793 101.755 30.2772 102.326 30.8908C102.898 31.5045 103.637 31.8114 104.547 31.8114C105.457 31.8114 106.196 31.5045 106.767 30.8908Z" fill="white"/>
</svg>
