<svg width="791" height="279" viewBox="0 0 791 279" fill="none" xmlns="http://www.w3.org/2000/svg">
<path d="M90.7638 38.3333C86.8968 38.3333 82.181 43.5675 79.0056 50.4628L47.5983 117.911H45.3976L15.0906 57.9222C9.55739 45.7928 3.45827 38.3333 0 38.3333V36.8289H32.9164V38.3333C31.4073 38.3333 30.5585 39.9944 30.5585 42.7526C30.5585 45.7928 31.6588 50.3374 34.1425 55.5716L55.3008 96.818L75.4845 54.4746C77.1508 50.4628 77.9682 46.8897 77.9682 44.1316C77.9682 40.5586 76.5849 38.3333 74.5099 38.3333V36.8289H90.7009V38.3333H90.7638Z" fill="white"/>
<path d="M128.527 116.405V117.91H95.6104V116.405C99.6345 116.405 102.936 112.143 102.936 99.982V63.8443C102.936 47.5776 99.886 47.4209 95.6104 47.4209V45.9165C99.1944 45.509 104.193 44.5374 109.443 42.3435C114.002 40.6823 117.177 38.7704 119.818 36.8272H121.202V100.013C121.202 106.094 122.019 110.231 123.402 112.707C124.66 115.34 126.452 116.437 128.527 116.437V116.405ZM111.927 24.6977C105.136 24.6977 99.6031 19.0561 99.6031 12.2862C99.6031 5.51625 105.136 0 111.927 0C118.718 0 124.377 5.51625 124.377 12.2862C124.377 19.0561 118.718 24.6977 111.927 24.6977Z" fill="white"/>
<path d="M207.658 97.7878C202.251 108.131 188.418 117.91 172.793 117.91C148.019 117.91 132.52 99.6997 132.52 77.3526C132.52 55.0055 146.761 36.7957 172.635 36.7957C181.627 36.7957 204.734 40.8075 204.734 59.5502C204.734 82.0226 161.286 83.8405 150.503 84.0912C155.061 99.1355 167.102 107.817 181.092 107.817H183.042C195.617 107.128 203.508 102.019 207.124 97.1923L207.69 97.7565L207.658 97.7878ZM148.993 71.8677C148.993 75.4407 149.402 79.0451 150.251 82.9002C171.566 77.5093 188.701 68.7021 188.701 54.7548C188.701 42.6253 179.992 38.6135 172.51 38.6135C160.752 38.6135 148.993 52.5295 148.993 71.8677Z" fill="white"/>
<path d="M341.014 36.8289V38.3333C336.99 38.3333 332.306 43.5675 329.131 50.4628L297.849 117.911H295.648L273.798 74.5963L253.74 117.911H251.54L221.233 57.9222C218.466 51.8418 215.574 47.0151 212.933 43.5675C210.166 40.2452 207.808 38.3333 206.142 38.3333V36.8289H239.058V38.3333C237.549 38.3333 236.701 39.9944 236.701 42.7526C236.701 45.9181 237.801 50.4628 240.285 55.5716L261.443 96.818L272.792 72.8098L265.31 57.9222C262.543 51.8418 259.651 47.0151 257.01 43.5675C254.243 40.2452 251.886 38.3333 250.094 38.3333V36.8289H283.167V38.3333C282.758 38.3333 282.35 38.4587 282.067 38.7407C281.249 39.4303 280.809 40.8093 280.809 42.7526C280.809 45.1032 281.375 48.1434 282.601 51.5911L283.419 53.6597C283.702 54.2238 283.985 54.9134 284.393 55.6029L305.552 96.8494L325.609 54.5059C327.401 50.4941 328.093 47.0465 328.093 44.2883C328.093 40.5586 326.836 38.3646 324.635 38.3646V36.8602H340.952L341.014 36.8289Z" fill="white"/>
<path d="M12.3389 244.375C10.9871 244.375 10.2954 243.685 10.2954 242.337V165.235C10.2954 163.888 10.9871 163.198 12.3389 163.198H27.1152C28.5928 163.198 29.3159 163.888 29.3159 165.235L29.7875 174.951C32.6169 170.657 36.3267 167.366 40.9482 165.079C45.5697 162.791 50.4427 161.631 55.5673 161.631C61.6349 161.631 66.8852 162.916 71.2866 165.486C75.6881 168.056 78.9891 171.723 81.1899 176.518C84.1137 171.723 88.0435 168.025 92.9794 165.486C97.9153 162.916 103.26 161.631 109.013 161.631C117.91 161.631 124.921 164.295 129.983 169.623C135.076 174.951 137.591 182.254 137.591 191.563V242.337C137.591 243.685 136.899 244.375 135.548 244.375H119.199C117.847 244.375 117.156 243.685 117.156 242.337V199.868C117.156 186.705 112.346 180.123 102.694 180.123C97.5695 180.123 93.168 182.097 89.5526 186.078C85.9371 190.058 84.1451 195.7 84.1451 203.003V242.337C84.1451 243.685 83.4535 244.375 82.1016 244.375H65.7534C64.4016 244.375 63.7099 243.685 63.7099 242.337V199.868C63.7099 186.705 58.8998 180.123 49.2481 180.123C44.1235 180.123 39.7221 182.097 36.1066 186.078C32.4912 190.058 30.6992 195.7 30.6992 203.003V242.337C30.6992 243.685 30.0075 244.375 28.6557 244.375H12.3389Z" fill="white"/>
<path d="M161.794 278.538C161.071 278.538 160.568 278.319 160.316 277.911C160.065 277.504 160.033 276.908 160.222 276.188L175.155 239.204L142.459 165.549C142.239 165.142 142.145 164.828 142.145 164.609C142.145 163.669 142.773 163.198 144.031 163.198H163.523C164.686 163.198 165.472 163.731 165.881 164.766L185.687 214.6L205.022 164.766C205.431 163.731 206.217 163.198 207.38 163.198H225.3C226.023 163.198 226.558 163.418 226.872 163.825C227.186 164.233 227.186 164.828 226.872 165.549L181.286 276.971C180.877 278.005 180.091 278.538 178.928 278.538H161.794Z" fill="white"/>
<path d="M265.947 240.363C259.911 236.664 255.604 231.305 252.994 224.315C252.9 224.096 252.837 223.845 252.837 223.532C252.837 222.686 253.371 222.121 254.409 221.808L268.714 217.89L269.342 217.733C270.285 217.733 270.914 218.204 271.229 219.144C273.021 222.278 275.253 224.535 277.988 225.882C280.723 227.23 283.898 227.92 287.577 227.92C295.531 227.92 299.524 225.945 299.524 221.965C299.524 220.304 298.643 218.893 296.851 217.733C295.059 216.574 291.915 215.383 287.42 214.129L283.49 213.032C274.058 210.431 267.204 206.795 262.897 202.125C258.59 197.486 256.452 191.907 256.452 185.451C256.452 180.844 257.773 176.738 260.382 173.133C262.992 169.529 266.639 166.708 271.291 164.671C275.944 162.634 281.32 161.599 287.388 161.599C295.342 161.599 302.039 163.292 307.446 166.677C312.854 170.062 316.815 175.171 319.33 181.972C319.424 182.191 319.487 182.505 319.487 182.912C319.487 183.758 319.016 184.26 318.072 184.479L303.768 189.024C303.548 189.118 303.233 189.181 302.825 189.181C302.196 189.181 301.63 188.773 301.095 187.927C297.952 182.379 293.299 179.621 287.105 179.621C284.181 179.621 281.855 180.091 280.126 181.032C278.397 181.972 277.516 183.445 277.516 185.42C277.516 187.3 278.491 188.836 280.409 190.027C282.358 191.218 285.565 192.409 290.092 193.537L293.865 194.477C303.611 196.891 310.496 200.213 314.52 204.507C318.544 208.801 320.588 214.443 320.588 221.432C320.588 228.421 317.569 234.658 311.533 239.14C305.497 243.622 297.763 245.879 288.331 245.879C279.434 245.879 271.952 244.03 265.947 240.3V240.363Z" fill="white"/>
<path d="M345.038 237.636C340.385 232.088 338.059 223.908 338.059 213.032V181.377H326.112C324.76 181.377 324.068 180.687 324.068 179.339V165.235C324.068 163.888 324.76 163.198 326.112 163.198H338.059V141.415C338.059 140.067 338.75 139.378 340.102 139.378H356.45C357.802 139.378 358.494 140.067 358.494 141.415V163.198H377.829C379.181 163.198 379.872 163.888 379.872 165.235V179.339C379.872 180.687 379.181 181.377 377.829 181.377H358.494V214.286C358.494 218.674 359.217 221.965 360.695 224.159C362.172 226.353 364.467 227.45 367.611 227.45C370.22 227.45 372.264 226.133 373.742 223.532C374.465 222.278 375.408 221.965 376.571 222.592L388.832 228.077C389.555 228.39 389.933 228.954 389.933 229.8C389.933 230.208 389.775 230.741 389.461 231.368C386.726 236.382 383.268 240.081 379.086 242.431C374.905 244.782 370.346 245.942 365.41 245.942C356.513 245.942 349.722 243.184 345.038 237.636Z" fill="white"/>
<path d="M407.033 240.613C401.28 237.072 396.847 232.088 393.734 225.726C390.653 219.363 389.113 212.029 389.113 203.786C389.113 195.543 390.653 188.209 393.734 181.847C396.815 175.484 401.248 170.501 407.033 166.959C412.786 163.417 419.514 161.631 427.154 161.631C432.813 161.631 437.937 162.728 442.496 164.922C447.054 167.116 450.796 170.25 453.751 174.324L454.223 165.235C454.223 163.888 454.946 163.198 456.423 163.198H471.199C472.551 163.198 473.243 163.888 473.243 165.235V242.337C473.243 243.685 472.551 244.375 471.199 244.375H456.423C454.946 244.375 454.223 243.685 454.223 242.337L453.751 233.248C450.827 237.323 447.086 240.457 442.496 242.651C437.937 244.845 432.844 245.942 427.154 245.942C419.514 245.942 412.786 244.155 407.033 240.613ZM448.06 220.868C452.148 216.48 454.191 210.776 454.191 203.786C454.191 196.797 452.148 191.093 448.06 186.705C443.973 182.317 438.692 180.123 432.184 180.123C425.676 180.123 420.394 182.317 416.307 186.705C412.22 191.093 410.177 196.797 410.177 203.786C410.177 210.776 412.22 216.48 416.307 220.868C420.394 225.256 425.676 227.45 432.184 227.45C438.692 227.45 443.973 225.256 448.06 220.868Z" fill="white"/>
<path d="M491.12 244.376C489.768 244.376 489.077 243.686 489.077 242.338V165.236C489.077 163.889 489.768 163.199 491.12 163.199H505.896C507.374 163.199 508.097 163.889 508.097 165.236L508.569 175.423C511.304 171.129 514.856 167.838 519.258 165.55C523.659 163.262 528.375 162.102 533.405 162.102C535.512 162.102 537.335 162.259 538.907 162.572C540.07 162.886 540.636 163.606 540.636 164.766V180.907C540.636 182.067 540.07 182.631 538.907 182.631C537.87 182.631 536.581 182.537 535.04 182.318C533.5 182.098 532.148 182.004 530.859 182.004C527.086 182.004 523.565 182.819 520.327 184.449C517.089 186.079 514.448 188.43 512.467 191.564C510.486 194.698 509.48 198.302 509.48 202.377V242.338C509.48 243.686 508.789 244.376 507.437 244.376H491.089H491.12Z" fill="white"/>
<path d="M565.11 237.636C560.457 232.088 558.099 223.908 558.099 213.032V181.377H546.152C544.801 181.377 544.109 180.687 544.109 179.339V165.235C544.109 163.888 544.801 163.198 546.152 163.198H558.099V141.415C558.099 140.067 558.791 139.378 560.143 139.378H576.491C577.843 139.378 578.534 140.067 578.534 141.415V163.198H597.869C599.221 163.198 599.913 163.888 599.913 165.235V179.339C599.913 180.687 599.221 181.377 597.869 181.377H578.534V214.286C578.534 218.674 579.257 221.965 580.735 224.159C582.213 226.353 584.508 227.45 587.652 227.45C590.261 227.45 592.305 226.133 593.782 223.532C594.505 222.278 595.448 221.965 596.612 222.592L608.873 228.077C609.596 228.39 609.973 228.954 609.973 229.8C609.973 230.208 609.816 230.741 609.502 231.368C606.766 236.382 603.308 240.081 599.127 242.431C594.945 244.782 590.387 245.942 585.451 245.942C576.554 245.942 569.763 243.184 565.079 237.636H565.11Z" fill="white"/>
<path d="M622.616 238.013C617.429 232.747 614.851 225.413 614.851 216.01V165.236C614.851 163.888 615.543 163.198 616.895 163.198H633.243C634.595 163.198 635.286 163.888 635.286 165.236V207.705C635.286 214.506 636.544 219.489 639.059 222.686C641.574 225.883 645.504 227.45 650.848 227.45C656.193 227.45 660.752 225.476 664.524 221.495C668.297 217.515 670.183 211.873 670.183 204.57V165.236C670.183 163.888 670.875 163.198 672.227 163.198H688.575C689.927 163.198 690.619 163.888 690.619 165.236V242.338C690.619 243.686 689.927 244.375 688.575 244.375H673.799C672.321 244.375 671.598 243.686 671.598 242.338L671.126 233.092C668.203 237.26 664.367 240.457 659.651 242.651C654.936 244.845 649.905 245.942 644.561 245.942C635.129 245.942 627.835 243.309 622.648 238.013H622.616Z" fill="white"/>
<path d="M708.525 278.538C707.173 278.538 706.481 277.848 706.481 276.5V165.235C706.481 163.888 707.173 163.198 708.525 163.198H723.301C724.779 163.198 725.502 163.888 725.502 165.235L725.973 174.324C728.897 170.25 732.638 167.116 737.197 164.922C741.756 162.728 746.88 161.631 752.539 161.631C760.179 161.631 766.907 163.417 772.66 166.959C778.413 170.501 782.846 175.484 785.927 181.847C789.008 188.209 790.58 195.543 790.58 203.786C790.58 212.029 789.04 219.363 785.927 225.726C782.846 232.088 778.413 237.072 772.66 240.613C766.907 244.155 760.179 245.942 752.539 245.942C747.289 245.942 742.479 244.939 738.077 242.964C733.676 240.99 729.966 238.169 726.917 234.502V276.5C726.917 277.848 726.225 278.538 724.873 278.538H708.525ZM763.386 220.868C767.473 216.48 769.516 210.776 769.516 203.786C769.516 196.797 767.473 191.093 763.386 186.705C759.299 182.317 754.017 180.123 747.509 180.123C741.001 180.123 735.719 182.317 731.632 186.705C727.545 191.093 725.502 196.797 725.502 203.786C725.502 210.776 727.545 216.48 731.632 220.868C735.719 225.256 741.001 227.45 747.509 227.45C754.017 227.45 759.299 225.256 763.386 220.868Z" fill="white"/>
</svg>
