<svg width="24" height="24" viewBox="0 0 24 24" fill="none" xmlns="http://www.w3.org/2000/svg">
  <g clip-path="url(#clip0_3093_16646)">
    <path d="M12 5C8.818 5 6.012 7.188 3.817 11.031a.998.998 0 0 0 0 .938C6.012 16.812 8.818 19 12 19c3.182 0 5.988-2.188 8.183-5.031a.998.998 0 0 0 0-.938C17.988 7.188 15.182 5 12 5Zm0 12c-2.564 0-4.892-1.856-7-5 2.108-3.144 4.436-5 7-5s4.892 1.856 7 5c-2.108 3.144-4.436 5-7 5Z" fill="#4B5563"/>
    <path d="M11.707 10.293a1 1 0 0 0-1.414 1.414l1.707 1.707a1 1 0 0 0 1.414-1.414l-1.707-1.707Z" fill="#4B5563"/>
    <path d="M2.293 2.293a1 1 0 1 0-1.414 1.414l19 19a1 1 0 0 0 1.414-1.414l-19-19Z" fill="#4B5563"/>
  </g>
  <defs>
    <clipPath id="clip0_3093_16646">
      <rect width="24" height="24" fill="white"/>
    </clipPath>
  </defs>
</svg>