<svg width="49" height="48" viewBox="0 0 49 48" fill="none" xmlns="http://www.w3.org/2000/svg">
<circle cx="24.5" cy="24" r="24" fill="#D8D8D8"/>
<path d="M23.2143 25.619H15.9524C15.5409 25.619 15.1959 25.4798 14.9176 25.2014C14.6392 24.9231 14.5 24.5781 14.5 24.1666C14.5 23.7551 14.6392 23.4102 14.9176 23.1318C15.1959 22.8534 15.5409 22.7143 15.9524 22.7143H23.2143V15.4524C23.2143 15.0409 23.3534 14.6959 23.6318 14.4176C23.9102 14.1392 24.2551 14 24.6666 14C25.0781 14 25.4231 14.1392 25.7014 14.4176C25.9798 14.6959 26.119 15.0409 26.119 15.4524V22.7143H33.3809C33.7924 22.7143 34.1373 22.8534 34.4157 23.1318C34.6941 23.4102 34.8333 23.7551 34.8333 24.1666C34.8333 24.5781 34.6941 24.9231 34.4157 25.2014C34.1373 25.4798 33.7924 25.619 33.3809 25.619H26.119V32.8809C26.119 33.2924 25.9798 33.6373 25.7014 33.9157C25.4231 34.1941 25.0781 34.3333 24.6666 34.3333C24.2551 34.3333 23.9102 34.1941 23.6318 33.9157C23.3534 33.6373 23.2143 33.2924 23.2143 32.8809V25.619Z" fill="#212121"/>
</svg>
