<svg width="16" height="16" viewBox="0 0 16 16" fill="none" xmlns="http://www.w3.org/2000/svg">
<path d="M8.37778 10.054L3.24286 15.1889C2.95188 15.4799 2.60955 15.6254 2.21587 15.6254C1.8222 15.6254 1.47987 15.4799 1.18889 15.1889C0.897912 14.8979 0.752422 14.5556 0.752422 14.1619C0.752422 13.7682 0.897912 13.4259 1.18889 13.1349L6.32381 8L1.18889 2.86508C0.897912 2.5741 0.752422 2.23177 0.752422 1.83809C0.752422 1.44442 0.897912 1.10209 1.18889 0.81111C1.47987 0.520131 1.8222 0.374641 2.21587 0.374641C2.60955 0.374641 2.95188 0.520131 3.24286 0.81111L8.37778 5.94603L13.5127 0.811109C13.8037 0.520131 14.146 0.374641 14.5397 0.374641C14.9334 0.374641 15.2757 0.520131 15.5667 0.81111C15.8576 1.10209 16.0031 1.44442 16.0031 1.83809C16.0031 2.23177 15.8576 2.5741 15.5667 2.86508L10.4317 8L15.5667 13.1349C15.8576 13.4259 16.0031 13.7682 16.0031 14.1619C16.0031 14.5556 15.8576 14.8979 15.5667 15.1889C15.2757 15.4799 14.9334 15.6254 14.5397 15.6254C14.146 15.6254 13.8037 15.4799 13.5127 15.1889L8.37778 10.054Z" fill="white"/>
</svg>
