<svg width="20" height="20" viewBox="0 0 20 20" fill="none" xmlns="http://www.w3.org/2000/svg">
<path fill-rule="evenodd" clip-rule="evenodd" d="M9.9989 20.0002C5.28486 20.0002 2.92783 20.0002 1.46337 18.5358C-0.00109863 17.0713 -0.00109863 14.7143 -0.00109863 10.0002C-0.00109863 5.2862 -0.00109863 2.92918 1.46337 1.46471C2.92783 0.000244141 5.28486 0.000244141 9.9989 0.000244141C14.7129 0.000244141 17.07 0.000244141 18.5344 1.46471C19.9989 2.92918 19.9989 5.2862 19.9989 10.0002C19.9989 14.7143 19.9989 17.0713 18.5344 18.5358C17.07 20.0002 14.7129 20.0002 9.9989 20.0002ZM13.7489 10.0002C13.7489 10.4145 13.4131 10.7502 12.9989 10.7502H6.9989C6.58469 10.7502 6.2489 10.4145 6.2489 10.0002C6.2489 9.58603 6.58469 9.25024 6.9989 9.25024H12.9989C13.4131 9.25024 13.7489 9.58603 13.7489 10.0002Z" fill="#212121"/>
</svg>
