<svg width="22" height="22" viewBox="0 0 22 22" fill="none" xmlns="http://www.w3.org/2000/svg">
<path fill-rule="evenodd" clip-rule="evenodd" d="M10.9426 0.25H11.0574C13.3658 0.249987 15.1748 0.249977 16.5863 0.439747C18.031 0.633986 19.1711 1.03933 20.0659 1.93414C20.9607 2.82895 21.366 3.96897 21.5603 5.41371C21.75 6.82519 21.75 8.63423 21.75 10.9426V11.0574C21.75 13.3658 21.75 15.1748 21.5603 16.5863C21.366 18.031 20.9607 19.1711 20.0659 20.0659C19.1711 20.9607 18.031 21.366 16.5863 21.5603C15.1748 21.75 13.3658 21.75 11.0574 21.75H10.9426C8.63423 21.75 6.82519 21.75 5.41371 21.5603C3.96897 21.366 2.82895 20.9607 1.93414 20.0659C1.03933 19.1711 0.633986 18.031 0.439747 16.5863C0.249977 15.1748 0.249987 13.3658 0.25 11.0574V10.9426C0.249987 8.63423 0.249977 6.82519 0.439747 5.41371C0.633986 3.96897 1.03933 2.82895 1.93414 1.93414C2.82895 1.03933 3.96897 0.633986 5.41371 0.439747C6.82519 0.249977 8.63423 0.249987 10.9426 0.25ZM5.61358 1.92637C4.33517 2.09825 3.56445 2.42514 2.9948 2.9948C2.42514 3.56445 2.09825 4.33517 1.92637 5.61358C1.75159 6.91356 1.75 8.62177 1.75 11C1.75 13.3782 1.75159 15.0864 1.92637 16.3864C2.09825 17.6648 2.42514 18.4355 2.9948 19.0052C3.56445 19.5749 4.33517 19.9018 5.61358 20.0736C6.91356 20.2484 8.62177 20.25 11 20.25C13.3782 20.25 15.0864 20.2484 16.3864 20.0736C17.6648 19.9018 18.4355 19.5749 19.0052 19.0052C19.5749 18.4355 19.9018 17.6648 20.0736 16.3864C20.2484 15.0864 20.25 13.3782 20.25 11C20.25 8.62177 20.2484 6.91356 20.0736 5.61358C19.9018 4.33517 19.5749 3.56445 19.0052 2.9948C18.4355 2.42514 17.6648 2.09825 16.3864 1.92637C15.0864 1.75159 13.3782 1.75 11 1.75C8.62177 1.75 6.91356 1.75159 5.61358 1.92637ZM7.46967 8.96967C7.76256 8.67678 8.23744 8.67678 8.53033 8.96967L11 11.4393L13.4697 8.96967C13.7626 8.67678 14.2374 8.67678 14.5303 8.96967C14.8232 9.26256 14.8232 9.73744 14.5303 10.0303L11.5303 13.0303C11.2374 13.3232 10.7626 13.3232 10.4697 13.0303L7.46967 10.0303C7.17678 9.73744 7.17678 9.26256 7.46967 8.96967Z" fill="#D8D8D8"/>
</svg>
