<svg width="64" height="23" viewBox="0 0 64 23" fill="none" xmlns="http://www.w3.org/2000/svg">
<path d="M7.29918 3.58278C6.9882 3.58278 6.60896 4.00371 6.3536 4.55822L3.82784 9.98242H3.65086L1.21358 5.15811C0.768601 4.18266 0.278112 3.58278 0 3.58278V3.46179H2.64712V3.58278C2.52576 3.58278 2.4575 3.71637 2.4575 3.93817C2.4575 4.18267 2.54599 4.54814 2.74573 4.96907L4.44727 8.2861L6.07043 4.88085C6.20443 4.55822 6.27017 4.27088 6.27017 4.04908C6.27017 3.76174 6.15892 3.58278 5.99205 3.58278V3.46179H7.29413V3.58278H7.29918Z" fill="white"/>
<path d="M10.335 9.86127V9.98225H7.68787V9.86127C8.01149 9.86127 8.27696 9.51848 8.27696 8.54051V5.63433C8.27696 4.32617 8.03171 4.31357 7.68787 4.31357V4.19258C7.97609 4.15982 8.37809 4.08168 8.80032 3.90524C9.16692 3.77166 9.42228 3.6179 9.63465 3.46163H9.7459V8.54303C9.7459 9.03201 9.81163 9.36472 9.92288 9.56385C10.024 9.77557 10.1681 9.86379 10.335 9.86379V9.86127ZM9.00005 2.48618C8.45394 2.48618 8.00896 2.03249 8.00896 1.48805C8.00896 0.943614 8.45394 0.5 9.00005 0.5C9.54616 0.5 10.0013 0.943614 10.0013 1.48805C10.0013 2.03249 9.54616 2.48618 9.00005 2.48618Z" fill="white"/>
<path d="M16.6995 8.36407C16.2646 9.19585 15.1522 9.98225 13.8956 9.98225C11.9033 9.98225 10.6569 8.51782 10.6569 6.72068C10.6569 4.92354 11.8022 3.45911 13.883 3.45911C14.6061 3.45911 16.4644 3.78174 16.4644 5.28902C16.4644 7.09624 12.9702 7.24243 12.103 7.26259C12.4696 8.47245 13.438 9.17064 14.5631 9.17064H14.7198C15.7311 9.11519 16.3657 8.70434 16.6565 8.31618L16.702 8.36155L16.6995 8.36407ZM11.9817 6.27959C11.9817 6.56693 12.0146 6.85679 12.0828 7.16681C13.797 6.73328 15.1749 6.02501 15.1749 4.90337C15.1749 3.92793 14.4746 3.6053 13.8728 3.6053C12.9273 3.6053 11.9817 4.72442 11.9817 6.27959Z" fill="white"/>
<path d="M27.4246 3.46179V3.58278C27.101 3.58278 26.7243 4.00371 26.4689 4.55822L23.9533 9.98242H23.7763L22.0191 6.49904L20.4061 9.98242H20.2291L17.7918 5.15811C17.5693 4.66913 17.3367 4.28097 17.1244 4.00371C16.9019 3.73653 16.7122 3.58278 16.5782 3.58278V3.46179H19.2254V3.58278C19.104 3.58278 19.0357 3.71637 19.0357 3.93817C19.0357 4.19275 19.1242 4.55822 19.324 4.96907L21.0255 8.2861L21.9382 6.35537L21.3365 5.15811C21.114 4.66913 20.8814 4.28097 20.669 4.00371C20.4465 3.73653 20.2569 3.58278 20.1128 3.58278V3.46179H22.7726V3.58278C22.7397 3.58278 22.7068 3.59286 22.6841 3.61554C22.6183 3.671 22.5829 3.7819 22.5829 3.93817C22.5829 4.12721 22.6285 4.3717 22.7271 4.64896L22.7928 4.81532C22.8155 4.86069 22.8383 4.91614 22.8712 4.97159L24.5727 8.28862L26.1858 4.88337C26.3299 4.56075 26.3855 4.28349 26.3855 4.06168C26.3855 3.76174 26.2844 3.5853 26.1074 3.5853V3.46431H27.4196L27.4246 3.46179Z" fill="white"/>
<path d="M0.994844 20.1525C0.886128 20.1525 0.830505 20.0971 0.830505 19.9887V13.7882C0.830505 13.6798 0.886128 13.6243 0.994844 13.6243H2.18314C2.30197 13.6243 2.36012 13.6798 2.36012 13.7882L2.39805 14.5695C2.62559 14.2242 2.92393 13.9595 3.29559 13.7755C3.66725 13.5916 4.05914 13.4983 4.47125 13.4983C4.95921 13.4983 5.38143 13.6016 5.73539 13.8083C6.08936 14.015 6.35483 14.3099 6.53181 14.6955C6.76694 14.3099 7.08298 14.0125 7.47992 13.8083C7.87686 13.6016 8.30667 13.4983 8.76935 13.4983C9.48485 13.4983 10.0487 13.7125 10.4557 14.141C10.8653 14.5695 11.0676 15.1568 11.0676 15.9054V19.9887C11.0676 20.0971 11.0119 20.1525 10.9032 20.1525H9.58851C9.4798 20.1525 9.42418 20.0971 9.42418 19.9887V16.5733C9.42418 15.5147 9.03735 14.9854 8.26116 14.9854C7.84905 14.9854 7.49509 15.1442 7.20433 15.4643C6.91358 15.7844 6.76947 16.2381 6.76947 16.8254V19.9887C6.76947 20.0971 6.71384 20.1525 6.60513 20.1525H5.29042C5.1817 20.1525 5.12608 20.0971 5.12608 19.9887V16.5733C5.12608 15.5147 4.73925 14.9854 3.96306 14.9854C3.55095 14.9854 3.19699 15.1442 2.90623 15.4643C2.61548 15.7844 2.47137 16.2381 2.47137 16.8254V19.9887C2.47137 20.0971 2.41575 20.1525 2.30703 20.1525H0.994844Z" fill="white"/>
<path d="M13.015 22.8997C12.9568 22.8997 12.9164 22.8821 12.8962 22.8493C12.8759 22.8165 12.8734 22.7686 12.8886 22.7107L14.0895 19.7364L11.4601 13.8132C11.4424 13.7804 11.4348 13.7552 11.4348 13.7376C11.4348 13.662 11.4854 13.6241 11.5865 13.6241H13.1541C13.2476 13.6241 13.3108 13.667 13.3437 13.7502L14.9365 17.7578L16.4914 13.7502C16.5243 13.667 16.5875 13.6241 16.681 13.6241H18.1222C18.1803 13.6241 18.2233 13.6418 18.2486 13.6746C18.2738 13.7073 18.2738 13.7552 18.2486 13.8132L14.5825 22.7737C14.5497 22.8569 14.4865 22.8997 14.3929 22.8997H13.015Z" fill="white"/>
<path d="M21.3906 19.8297C20.9052 19.5323 20.5588 19.1013 20.3489 18.5392C20.3414 18.5216 20.3363 18.5014 20.3363 18.4762C20.3363 18.4081 20.3793 18.3628 20.4627 18.3376L21.6131 18.0225L21.6637 18.0099C21.7395 18.0099 21.7901 18.0477 21.8154 18.1233C21.9595 18.3754 22.139 18.5568 22.3589 18.6652C22.5789 18.7736 22.8343 18.8291 23.1301 18.8291C23.7697 18.8291 24.0908 18.6703 24.0908 18.3502C24.0908 18.2166 24.02 18.1031 23.8759 18.0099C23.7318 17.9166 23.479 17.8208 23.1174 17.72L22.8014 17.6318C22.0429 17.4226 21.4917 17.1302 21.1454 16.7547C20.799 16.3816 20.6271 15.933 20.6271 15.4137C20.6271 15.0432 20.7332 14.713 20.9431 14.4232C21.1529 14.1333 21.4462 13.9065 21.8204 13.7426C22.1946 13.5788 22.6269 13.4956 23.1149 13.4956C23.7546 13.4956 24.2931 13.6317 24.728 13.9039C25.1628 14.1761 25.4814 14.587 25.6836 15.134C25.6912 15.1516 25.6963 15.1768 25.6963 15.2096C25.6963 15.2776 25.6584 15.318 25.5825 15.3356L24.4321 15.7011C24.4144 15.7086 24.3892 15.7137 24.3563 15.7137C24.3057 15.7137 24.2602 15.6809 24.2172 15.6129C23.9644 15.1667 23.5902 14.9449 23.0921 14.9449C22.857 14.9449 22.6699 14.9827 22.5309 15.0583C22.3918 15.134 22.321 15.2524 22.321 15.4112C22.321 15.5624 22.3994 15.686 22.5536 15.7817C22.7104 15.8775 22.9683 15.9733 23.3323 16.064L23.6357 16.1396C24.4195 16.3337 24.9732 16.6009 25.2968 16.9462C25.6204 17.2915 25.7848 17.7452 25.7848 18.3073C25.7848 18.8694 25.5421 19.371 25.0566 19.7314C24.5712 20.0918 23.9492 20.2733 23.1907 20.2733C22.4752 20.2733 21.8735 20.1246 21.3906 19.8247V19.8297Z" fill="white"/>
<path d="M27.7505 19.6105C27.3763 19.1644 27.1892 18.5065 27.1892 17.6319V15.0861H26.2285C26.1198 15.0861 26.0641 15.0307 26.0641 14.9223V13.7881C26.0641 13.6797 26.1198 13.6242 26.2285 13.6242H27.1892V11.8725C27.1892 11.7641 27.2449 11.7086 27.3536 11.7086H28.6683C28.777 11.7086 28.8326 11.7641 28.8326 11.8725V13.6242H30.3875C30.4962 13.6242 30.5519 13.6797 30.5519 13.7881V14.9223C30.5519 15.0307 30.4962 15.0861 30.3875 15.0861H28.8326V17.7327C28.8326 18.0856 28.8908 18.3502 29.0096 18.5267C29.1284 18.7031 29.313 18.7913 29.5658 18.7913C29.7757 18.7913 29.94 18.6855 30.0589 18.4763C30.117 18.3754 30.1928 18.3502 30.2864 18.4006L31.2724 18.8417C31.3306 18.8669 31.3609 18.9123 31.3609 18.9804C31.3609 19.0131 31.3483 19.056 31.323 19.1064C31.103 19.5097 30.8249 19.8071 30.4887 19.9961C30.1524 20.1852 29.7858 20.2784 29.3889 20.2784C28.6733 20.2784 28.1272 20.0566 27.7505 19.6105Z" fill="white"/>
<path d="M32.7356 19.85C32.2729 19.5652 31.9164 19.1645 31.6661 18.6528C31.4183 18.1411 31.2944 17.5513 31.2944 16.8884C31.2944 16.2255 31.4183 15.6357 31.6661 15.124C31.9139 14.6124 32.2704 14.2116 32.7356 13.9268C33.1982 13.642 33.7393 13.4983 34.3537 13.4983C34.8088 13.4983 35.2209 13.5865 35.5875 13.7629C35.9541 13.9394 36.2549 14.1914 36.4926 14.5191L36.5305 13.7882C36.5305 13.6798 36.5887 13.6243 36.7075 13.6243H37.8958C38.0045 13.6243 38.0601 13.6798 38.0601 13.7882V19.9887C38.0601 20.0971 38.0045 20.1525 37.8958 20.1525H36.7075C36.5887 20.1525 36.5305 20.0971 36.5305 19.9887L36.4926 19.2577C36.2575 19.5854 35.9566 19.8374 35.5875 20.0139C35.2209 20.1903 34.8113 20.2785 34.3537 20.2785C33.7393 20.2785 33.1982 20.1349 32.7356 19.85ZM36.035 18.2621C36.3637 17.9092 36.528 17.4505 36.528 16.8884C36.528 16.3263 36.3637 15.8676 36.035 15.5147C35.7063 15.1618 35.2816 14.9854 34.7582 14.9854C34.2348 14.9854 33.8101 15.1618 33.4814 15.5147C33.1527 15.8676 32.9884 16.3263 32.9884 16.8884C32.9884 17.4505 33.1527 17.9092 33.4814 18.2621C33.8101 18.615 34.2348 18.7914 34.7582 18.7914C35.2816 18.7914 35.7063 18.615 36.035 18.2621Z" fill="white"/>
<path d="M39.4977 20.1525C39.389 20.1525 39.3334 20.0971 39.3334 19.9887V13.7882C39.3334 13.6798 39.389 13.6244 39.4977 13.6244H40.686C40.8048 13.6244 40.863 13.6798 40.863 13.7882L40.9009 14.6074C41.1209 14.262 41.4066 13.9974 41.7605 13.8134C42.1145 13.6294 42.4937 13.5361 42.8983 13.5361C43.0677 13.5361 43.2143 13.5487 43.3407 13.5739C43.4343 13.5991 43.4798 13.6571 43.4798 13.7504V15.0485C43.4798 15.1417 43.4343 15.1871 43.3407 15.1871C43.2573 15.1871 43.1536 15.1795 43.0297 15.1619C42.9059 15.1442 42.7971 15.1367 42.6935 15.1367C42.3901 15.1367 42.1069 15.2022 41.8465 15.3333C41.5861 15.4643 41.3737 15.6534 41.2144 15.9054C41.0551 16.1575 40.9742 16.4474 40.9742 16.775V19.9887C40.9742 20.0971 40.9186 20.1525 40.8099 20.1525H39.4952H39.4977Z" fill="white"/>
<path d="M45.4481 19.6105C45.0739 19.1644 44.8843 18.5065 44.8843 17.6319V15.0861H43.9236C43.8148 15.0861 43.7592 15.0307 43.7592 14.9223V13.7881C43.7592 13.6797 43.8148 13.6242 43.9236 13.6242H44.8843V11.8725C44.8843 11.7641 44.9399 11.7086 45.0486 11.7086H46.3634C46.4721 11.7086 46.5277 11.7641 46.5277 11.8725V13.6242H48.0826C48.1913 13.6242 48.2469 13.6797 48.2469 13.7881V14.9223C48.2469 15.0307 48.1913 15.0861 48.0826 15.0861H46.5277V17.7327C46.5277 18.0856 46.5859 18.3502 46.7047 18.5267C46.8235 18.7031 47.0081 18.7913 47.2609 18.7913C47.4708 18.7913 47.6351 18.6855 47.7539 18.4763C47.8121 18.3754 47.8879 18.3502 47.9815 18.4006L48.9675 18.8417C49.0257 18.8669 49.056 18.9123 49.056 18.9804C49.056 19.0131 49.0433 19.056 49.0181 19.1064C48.7981 19.5097 48.52 19.8071 48.1837 19.9961C47.8475 20.1852 47.4809 20.2784 47.0839 20.2784C46.3684 20.2784 45.8223 20.0566 45.4456 19.6105H45.4481Z" fill="white"/>
<path d="M50.0729 19.6407C49.6557 19.2172 49.4484 18.6274 49.4484 17.8712V13.788C49.4484 13.6796 49.504 13.6241 49.6128 13.6241H50.9275C51.0362 13.6241 51.0918 13.6796 51.0918 13.788V17.2033C51.0918 17.7503 51.1929 18.151 51.3952 18.4081C51.5975 18.6652 51.9135 18.7912 52.3433 18.7912C52.7731 18.7912 53.1397 18.6324 53.4431 18.3123C53.7465 17.9922 53.8982 17.5385 53.8982 16.9513V13.788C53.8982 13.6796 53.9538 13.6241 54.0626 13.6241H55.3773C55.486 13.6241 55.5416 13.6796 55.5416 13.788V19.9885C55.5416 20.0969 55.486 20.1523 55.3773 20.1523H54.189C54.0701 20.1523 54.012 20.0969 54.012 19.9885L53.9741 19.2449C53.7389 19.5802 53.4305 19.8373 53.0512 20.0137C52.672 20.1901 52.2675 20.2784 51.8377 20.2784C51.0792 20.2784 50.4926 20.0666 50.0754 19.6407H50.0729Z" fill="white"/>
<path d="M56.98 22.8999C56.8712 22.8999 56.8156 22.8444 56.8156 22.7361V13.7882C56.8156 13.6798 56.8712 13.6243 56.98 13.6243H58.1682C58.2871 13.6243 58.3452 13.6798 58.3452 13.7882L58.3832 14.5191C58.6183 14.1914 58.9191 13.9394 59.2858 13.7629C59.6524 13.5865 60.0645 13.4983 60.5196 13.4983C61.1339 13.4983 61.675 13.642 62.1377 13.9268C62.6003 14.2116 62.9568 14.6124 63.2046 15.124C63.4524 15.6357 63.5788 16.2255 63.5788 16.8884C63.5788 17.5513 63.4549 18.1411 63.2046 18.6528C62.9568 19.1645 62.6003 19.5652 62.1377 19.85C61.675 20.1349 61.1339 20.2785 60.5196 20.2785C60.0973 20.2785 59.7105 20.1979 59.3565 20.0391C59.0026 19.8803 58.7042 19.6534 58.459 19.3585V22.7361C58.459 22.8444 58.4034 22.8999 58.2947 22.8999H56.98ZM61.3918 18.2621C61.7205 17.9092 61.8848 17.4505 61.8848 16.8884C61.8848 16.3263 61.7205 15.8676 61.3918 15.5147C61.0631 15.1618 60.6384 14.9854 60.115 14.9854C59.5917 14.9854 59.1669 15.1618 58.8382 15.5147C58.5096 15.8676 58.3452 16.3263 58.3452 16.8884C58.3452 17.4505 58.5096 17.9092 58.8382 18.2621C59.1669 18.615 59.5917 18.7914 60.115 18.7914C60.6384 18.7914 61.0631 18.615 61.3918 18.2621Z" fill="white"/>
</svg>
