<svg width="542" height="191" viewBox="0 0 542 191" fill="none" xmlns="http://www.w3.org/2000/svg">
<path d="M62.2017 26.2703C59.5516 26.2703 56.3198 29.8573 54.1437 34.5828L32.6198 80.8063H31.1116L10.3418 39.6949C6.54982 31.3824 2.37 26.2703 0 26.2703V25.2393H22.5581V26.2703C21.5239 26.2703 20.9422 27.4087 20.9422 29.2989C20.9422 31.3824 21.6963 34.4969 23.3984 38.0839L37.8985 66.3507L51.7306 37.3321C52.8725 34.5828 53.4327 32.1341 53.4327 30.2439C53.4327 27.7953 52.4847 26.2703 51.0627 26.2703V25.2393H62.1586V26.2703H62.2017Z" fill="white"/>
<path d="M88.0801 79.7743V80.8053H65.522V79.7743C68.2798 79.7743 70.5421 76.8531 70.5421 68.5191V43.7534C70.5421 32.6057 68.4522 32.4983 65.522 32.4983V31.4672C67.9782 31.188 71.4039 30.5222 75.002 29.0186C78.1261 27.8802 80.3022 26.57 82.112 25.2382H83.06V68.5406C83.06 72.7076 83.6202 75.5429 84.5682 77.2397C85.43 79.044 86.6581 79.7958 88.0801 79.7958V79.7743ZM76.7041 16.9257C72.0502 16.9257 68.2582 13.0594 68.2582 8.4199C68.2582 3.78037 72.0502 0 76.7041 0C81.3579 0 85.2361 3.78037 85.2361 8.4199C85.2361 13.0594 81.3579 16.9257 76.7041 16.9257Z" fill="white"/>
<path d="M142.312 67.0166C138.607 74.1048 129.127 80.8063 118.418 80.8063C101.441 80.8063 90.8187 68.3268 90.8187 53.012C90.8187 37.6973 100.579 25.2178 118.311 25.2178C124.473 25.2178 140.309 27.9671 140.309 40.8118C140.309 56.2125 110.533 57.4583 103.143 57.6301C106.267 67.9402 114.519 73.89 124.106 73.89H125.442C134.06 73.4174 139.468 69.9163 141.946 66.6085L142.334 66.9951L142.312 67.0166ZM102.109 49.2532C102.109 51.7018 102.389 54.1719 102.97 56.8139C117.578 53.1194 129.32 47.0837 129.32 37.5254C129.32 29.2129 123.352 26.4636 118.225 26.4636C110.167 26.4636 102.109 36.0004 102.109 49.2532Z" fill="white"/>
<path d="M233.703 25.2393V26.2703C230.946 26.2703 227.735 29.8573 225.559 34.5828L204.121 80.8063H202.613L187.639 51.1219L173.893 80.8063H172.385L151.615 39.6949C149.719 35.5279 147.737 32.22 145.927 29.8573C144.031 27.5805 142.415 26.2703 141.273 26.2703V25.2393H163.831V26.2703C162.797 26.2703 162.216 27.4087 162.216 29.2989C162.216 31.4683 162.97 34.5828 164.672 38.0839L179.172 66.3507L186.95 49.8975L181.822 39.6949C179.926 35.5279 177.944 32.22 176.134 29.8573C174.238 27.5805 172.622 26.2703 171.394 26.2703V25.2393H194.06V26.2703C193.78 26.2703 193.5 26.3562 193.306 26.5495C192.745 27.022 192.444 27.9671 192.444 29.2989C192.444 30.9098 192.832 32.9933 193.672 35.356L194.232 36.7737C194.426 37.1603 194.62 37.6328 194.9 38.1054L209.4 66.3722L223.146 37.3536C224.374 34.6043 224.848 32.2415 224.848 30.3513C224.848 27.7953 223.986 26.2917 222.478 26.2917V25.2607H233.66L233.703 25.2393Z" fill="white"/>
<path d="M8.45563 167.475C7.52918 167.475 7.05518 167.002 7.05518 166.078V113.239C7.05518 112.316 7.52918 111.843 8.45563 111.843H18.582C19.5946 111.843 20.0902 112.316 20.0902 113.239L20.4134 119.898C22.3525 116.955 24.8948 114.7 28.062 113.132C31.2292 111.564 34.5687 110.769 38.0806 110.769C42.2389 110.769 45.837 111.65 48.8534 113.411C51.8697 115.172 54.132 117.685 55.6402 120.972C57.6439 117.685 60.3371 115.151 63.7197 113.411C67.1024 111.65 70.7651 110.769 74.7079 110.769C80.8053 110.769 85.6099 112.595 89.0787 116.246C92.5691 119.898 94.2927 124.902 94.2927 131.282V166.078C94.2927 167.002 93.8187 167.475 92.8923 167.475H81.6886C80.7622 167.475 80.2882 167.002 80.2882 166.078V136.974C80.2882 127.953 76.9917 123.442 70.3773 123.442C66.8654 123.442 63.849 124.795 61.3713 127.523C58.8935 130.251 57.6655 134.117 57.6655 139.122V166.078C57.6655 167.002 57.1915 167.475 56.265 167.475H45.0614C44.1349 167.475 43.6609 167.002 43.6609 166.078V136.974C43.6609 127.953 40.3645 123.442 33.75 123.442C30.2381 123.442 27.2217 124.795 24.744 127.523C22.2663 130.251 21.0382 134.117 21.0382 139.122V166.078C21.0382 167.002 20.5642 167.475 19.6377 167.475H8.45563Z" fill="white"/>
<path d="M110.88 190.887C110.385 190.887 110.04 190.737 109.868 190.458C109.695 190.178 109.674 189.77 109.803 189.276L120.037 163.931L97.6299 113.454C97.4791 113.175 97.4144 112.96 97.4144 112.81C97.4144 112.165 97.8453 111.843 98.7072 111.843H112.065C112.863 111.843 113.401 112.208 113.681 112.917L127.255 147.069L140.505 112.917C140.785 112.208 141.324 111.843 142.121 111.843H154.402C154.898 111.843 155.264 111.994 155.479 112.273C155.695 112.552 155.695 112.96 155.479 113.454L124.239 189.813C123.958 190.522 123.42 190.887 122.623 190.887H110.88Z" fill="white"/>
<path d="M182.257 164.725C178.12 162.191 175.168 158.518 173.38 153.728C173.315 153.577 173.272 153.406 173.272 153.191C173.272 152.611 173.639 152.224 174.35 152.009L184.153 149.324L184.584 149.217C185.23 149.217 185.661 149.539 185.876 150.184C187.105 152.332 188.634 153.878 190.509 154.802C192.383 155.725 194.559 156.198 197.08 156.198C202.531 156.198 205.267 154.845 205.267 152.117C205.267 150.978 204.664 150.012 203.436 149.217C202.208 148.422 200.053 147.606 196.972 146.747L194.279 145.995C187.816 144.212 183.119 141.721 180.167 138.52C177.215 135.341 175.75 131.518 175.75 127.093C175.75 123.936 176.655 121.122 178.443 118.652C180.232 116.182 182.731 114.249 185.92 112.853C189.108 111.456 192.793 110.748 196.951 110.748C202.402 110.748 206.991 111.907 210.697 114.227C214.403 116.547 217.117 120.048 218.841 124.709C218.906 124.859 218.949 125.074 218.949 125.354C218.949 125.933 218.626 126.277 217.979 126.427L208.176 129.542C208.025 129.606 207.81 129.649 207.53 129.649C207.099 129.649 206.711 129.37 206.345 128.79C204.19 124.988 201.001 123.098 196.757 123.098C194.753 123.098 193.159 123.42 191.974 124.065C190.789 124.709 190.186 125.719 190.186 127.072C190.186 128.361 190.853 129.413 192.168 130.229C193.504 131.046 195.701 131.862 198.804 132.635L201.389 133.279C208.068 134.933 212.787 137.21 215.545 140.153C218.302 143.095 219.703 146.962 219.703 151.752C219.703 156.542 217.634 160.816 213.498 163.887C209.361 166.959 204.061 168.506 197.597 168.506C191.5 168.506 186.372 167.238 182.257 164.682V164.725Z" fill="white"/>
<path d="M236.459 162.857C233.271 159.055 231.676 153.449 231.676 145.996V124.301H223.489C222.563 124.301 222.089 123.829 222.089 122.905V113.24C222.089 112.316 222.563 111.843 223.489 111.843H231.676V96.9152C231.676 95.9916 232.15 95.519 233.077 95.519H244.28C245.207 95.519 245.681 95.9916 245.681 96.9152V111.843H258.931C259.858 111.843 260.332 112.316 260.332 113.24V122.905C260.332 123.829 259.858 124.301 258.931 124.301H245.681V146.855C245.681 149.862 246.176 152.117 247.189 153.621C248.202 155.124 249.775 155.876 251.929 155.876C253.717 155.876 255.118 154.974 256.13 153.191C256.626 152.332 257.272 152.117 258.07 152.547L266.472 156.306C266.968 156.52 267.226 156.907 267.226 157.487C267.226 157.766 267.119 158.131 266.903 158.561C265.029 161.998 262.659 164.532 259.793 166.143C256.928 167.754 253.804 168.549 250.421 168.549C244.324 168.549 239.67 166.659 236.459 162.857Z" fill="white"/>
<path d="M278.944 164.897C275.001 162.47 271.963 159.055 269.83 154.694C267.719 150.334 266.663 145.308 266.663 139.659C266.663 134.01 267.719 128.984 269.83 124.623C271.942 120.263 274.98 116.848 278.944 114.421C282.887 111.993 287.497 110.769 292.733 110.769C296.611 110.769 300.123 111.521 303.247 113.024C306.371 114.528 308.935 116.676 310.96 119.468L311.284 113.239C311.284 112.316 311.779 111.843 312.792 111.843H322.918C323.845 111.843 324.319 112.316 324.319 113.239V166.078C324.319 167.002 323.845 167.475 322.918 167.475H312.792C311.779 167.475 311.284 167.002 311.284 166.078L310.96 159.849C308.957 162.642 306.393 164.79 303.247 166.293C300.123 167.797 296.633 168.548 292.733 168.548C287.497 168.548 282.887 167.324 278.944 164.897ZM307.061 151.365C309.862 148.358 311.262 144.449 311.262 139.659C311.262 134.869 309.862 130.96 307.061 127.953C304.26 124.945 300.64 123.442 296.18 123.442C291.72 123.442 288.101 124.945 285.3 127.953C282.499 130.96 281.098 134.869 281.098 139.659C281.098 144.449 282.499 148.358 285.3 151.365C288.101 154.372 291.72 155.876 296.18 155.876C300.64 155.876 304.26 154.372 307.061 151.365Z" fill="white"/>
<path d="M336.572 167.476C335.646 167.476 335.172 167.003 335.172 166.079V113.24C335.172 112.317 335.646 111.844 336.572 111.844H346.698C347.711 111.844 348.207 112.317 348.207 113.24L348.53 120.221C350.404 117.278 352.839 115.023 355.855 113.455C358.872 111.887 362.103 111.092 365.551 111.092C366.994 111.092 368.244 111.2 369.321 111.414C370.118 111.629 370.506 112.123 370.506 112.918V123.98C370.506 124.775 370.118 125.161 369.321 125.161C368.61 125.161 367.727 125.097 366.671 124.946C365.615 124.796 364.689 124.732 363.805 124.732C361.22 124.732 358.807 125.29 356.588 126.407C354.369 127.524 352.559 129.135 351.201 131.283C349.844 133.431 349.155 135.901 349.155 138.693V166.079C349.155 167.003 348.68 167.476 347.754 167.476H336.55H336.572Z" fill="white"/>
<path d="M387.279 162.857C384.09 159.055 382.474 153.449 382.474 145.996V124.301H374.287C373.36 124.301 372.886 123.829 372.886 122.905V113.24C372.886 112.316 373.36 111.843 374.287 111.843H382.474V96.9152C382.474 95.9916 382.948 95.519 383.874 95.519H395.078C396.005 95.519 396.478 95.9916 396.478 96.9152V111.843H409.729C410.655 111.843 411.129 112.316 411.129 113.24V122.905C411.129 123.829 410.655 124.301 409.729 124.301H396.478V146.855C396.478 149.862 396.974 152.117 397.987 153.621C398.999 155.124 400.572 155.876 402.727 155.876C404.515 155.876 405.915 154.974 406.928 153.191C407.424 152.332 408.07 152.117 408.867 152.547L417.27 156.306C417.765 156.52 418.024 156.907 418.024 157.487C418.024 157.766 417.916 158.131 417.701 158.561C415.826 161.998 413.456 164.532 410.591 166.143C407.725 167.754 404.601 168.549 401.219 168.549C395.121 168.549 390.467 166.659 387.257 162.857H387.279Z" fill="white"/>
<path d="M426.687 163.114C423.132 159.506 421.365 154.48 421.365 148.036V113.239C421.365 112.316 421.839 111.843 422.766 111.843H433.969C434.896 111.843 435.37 112.316 435.37 113.239V142.344C435.37 147.005 436.232 150.42 437.955 152.611C439.679 154.802 442.372 155.876 446.035 155.876C449.698 155.876 452.822 154.523 455.407 151.795C457.993 149.067 459.285 145.201 459.285 140.196V113.239C459.285 112.316 459.759 111.843 460.686 111.843H471.889C472.816 111.843 473.29 112.316 473.29 113.239V166.079C473.29 167.002 472.816 167.475 471.889 167.475H461.763C460.75 167.475 460.255 167.002 460.255 166.079L459.932 159.742C457.928 162.599 455.299 164.79 452.068 166.293C448.836 167.797 445.389 168.549 441.726 168.549C435.262 168.549 430.264 166.744 426.709 163.114H426.687Z" fill="white"/>
<path d="M485.563 190.887C484.636 190.887 484.162 190.414 484.162 189.491V113.239C484.162 112.316 484.636 111.843 485.563 111.843H495.689C496.702 111.843 497.197 112.316 497.197 113.239L497.52 119.468C499.524 116.676 502.088 114.528 505.212 113.024C508.336 111.521 511.848 110.769 515.726 110.769C520.962 110.769 525.572 111.993 529.515 114.421C533.458 116.848 536.496 120.263 538.607 124.623C540.719 128.984 541.796 134.01 541.796 139.659C541.796 145.308 540.74 150.334 538.607 154.694C536.496 159.055 533.458 162.47 529.515 164.897C525.572 167.324 520.962 168.548 515.726 168.548C512.128 168.548 508.832 167.861 505.815 166.508C502.799 165.155 500.257 163.222 498.167 160.709V189.491C498.167 190.414 497.693 190.887 496.766 190.887H485.563ZM523.159 151.365C525.96 148.358 527.361 144.449 527.361 139.659C527.361 134.869 525.96 130.96 523.159 127.953C520.358 124.945 516.739 123.442 512.279 123.442C507.819 123.442 504.199 124.945 501.398 127.953C498.598 130.96 497.197 134.869 497.197 139.659C497.197 144.449 498.598 148.358 501.398 151.365C504.199 154.372 507.819 155.876 512.279 155.876C516.739 155.876 520.358 154.372 523.159 151.365Z" fill="white"/>
</svg>
